<svg xmlns="http://www.w3.org/2000/svg" version="1.1" xmlns:xlink="http://www.w3.org/1999/xlink" xmlns:svgjs="http://svgjs.com/svgjs" width="1920" height="1080" preserveAspectRatio="none" viewBox="0 0 1920 1080"><g mask="url(&quot;#SvgjsMask1102&quot;)" fill="none"><path d="M -693.1916938093968,183 C -565.19,320.4 -309.19,810 -53.19169380939684,870 C 202.81,930 330.81,451.4 586.8083061906032,483 C 842.81,514.6 970.81,1067.4 1226.8083061906032,1028 C 1482.81,988.6 1728.17,304.6 1866.8083061906032,286 C 2005.45,267.4 1909.36,805.2 1920,935" stroke="rgba(0, 131, 113, 0.6)" stroke-width="2"/><path d="M -1237.1767400864123,727 C -1109.18,673.6 -853.18,475.2 -597.1767400864125,460 C -341.18,444.8 -213.18,691.8 42.82325991358755,651 C 298.82,610.2 426.82,190 682.8232599135875,256 C 938.82,322 1075.39,928 1322.8232599135877,981 C 1570.26,1034 1800.56,613 1920,521" stroke="rgba(0, 131, 113, 0.6)" stroke-width="2"/><path d="M -1172.679256528893,192 C -1044.68,300.4 -788.68,670 -532.6792565288928,734 C -276.68,798 -148.68,494.4 107.32074347110722,512 C 363.32,529.6 491.32,847 747.3207434711072,822 C 1003.32,797 1152.78,438.8 1387.320743471107,387 C 1621.86,335.2 1813.46,527.8 1920,563" stroke="rgba(0, 131, 113, 0.6)" stroke-width="2"/><path d="M -283.0673843637335,570 C -155.07,502.4 100.93,134.8 356.9326156362665,232 C 612.93,329.2 740.93,1080.2 996.9326156362665,1056 C 1252.93,1031.8 1380.93,180.6 1636.9326156362665,111 C 1892.93,41.4 2220.32,623.6 2276.9326156362667,708 C 2333.55,792.4 1991.39,568 1920,533" stroke="rgba(0, 131, 113, 0.6)" stroke-width="2"/></g><defs><mask id="SvgjsMask1102"><rect width="1920" height="1080" fill="#ffffff"/></mask></defs></svg>